<svg width="30" height="30" viewBox="0 0 30 30" fill="none" xmlns="http://www.w3.org/2000/svg">
<path d="M8.88003 12.67C8.87162 12.9508 8.90877 13.2311 8.99003 13.5C9.07003 13.732 9.17003 13.956 9.29003 14.17C9.33265 14.232 9.35692 14.3048 9.36003 14.38C9.35478 14.4377 9.33567 14.4933 9.30434 14.542C9.273 14.5908 9.23036 14.6313 9.18003 14.66L8.59003 15.05C8.51986 15.1001 8.43624 15.128 8.35003 15.13C8.29686 15.1291 8.24447 15.1171 8.19623 15.0947C8.148 15.0723 8.10501 15.04 8.07003 15C7.94051 14.8702 7.82642 14.7259 7.73003 14.57C7.64003 14.41 7.55003 14.23 7.45003 14.02C7.12201 14.4298 6.70456 14.7591 6.22963 14.9827C5.7547 15.2063 5.2349 15.3183 4.71003 15.31C4.37095 15.3283 4.03165 15.2785 3.71217 15.1634C3.39269 15.0483 3.09953 14.8703 2.85003 14.64C2.6179 14.4057 2.43746 14.1254 2.32033 13.8171C2.20321 13.5087 2.15201 13.1793 2.17003 12.85C2.15791 12.4876 2.22706 12.127 2.37241 11.7948C2.51776 11.4626 2.73563 11.1671 3.01003 10.93C3.66172 10.422 4.47489 10.1663 5.30003 10.21C5.63464 10.2085 5.96889 10.2319 6.30003 10.28C6.65003 10.33 7.00003 10.4 7.37003 10.48V9.79999C7.42345 9.26493 7.26554 8.7302 6.93003 8.30999C6.49768 7.9762 5.95317 7.82216 5.41003 7.87999C5.0732 7.88158 4.73767 7.92185 4.41003 7.99999C4.069 8.08092 3.73469 8.1879 3.41003 8.31999L3.08003 8.43999H2.94003C2.80003 8.43999 2.74003 8.33999 2.74003 8.14999V7.68999C2.73117 7.57988 2.75188 7.46941 2.80003 7.36999C2.87443 7.2845 2.96657 7.21625 3.07003 7.16999C3.44444 6.98986 3.83654 6.8491 4.24003 6.74999C4.71364 6.62803 5.20098 6.56754 5.69003 6.56999C6.5716 6.49314 7.44803 6.76613 8.13003 7.32999C8.41011 7.63747 8.62319 7.99983 8.75574 8.39405C8.8883 8.78828 8.93744 9.20576 8.90003 9.61999L8.88003 12.67ZM5.10003 14.09C5.4406 14.0905 5.77876 14.033 6.10003 13.92C6.4422 13.8032 6.74632 13.5959 6.98003 13.32C7.13431 13.1531 7.24433 12.9503 7.30003 12.73C7.36465 12.465 7.3949 12.1927 7.39003 11.92V11.5C7.09622 11.4389 6.79903 11.3955 6.50003 11.37H5.62003C5.13115 11.3308 4.64371 11.4615 4.24003 11.74C4.08402 11.8713 3.9611 12.0375 3.88119 12.2251C3.80128 12.4127 3.76663 12.6165 3.78003 12.82C3.76357 13.0012 3.78533 13.1838 3.84389 13.3561C3.90246 13.5283 3.99654 13.6864 4.12003 13.82C4.39803 14.036 4.75003 14.133 5.10003 14.09ZM12.59 15.09C12.4633 15.1018 12.3363 15.07 12.23 15C12.1285 14.8989 12.059 14.7703 12.03 14.63L9.85003 7.42999C9.80571 7.30769 9.77879 7.17978 9.77003 7.04999C9.77003 6.89999 9.84003 6.81999 9.99003 6.81999H10.91C11.0368 6.8082 11.1637 6.83995 11.27 6.90999C11.3674 7.01262 11.4334 7.14103 11.46 7.27999L13.03 13.5L14.5 7.28999C14.5154 7.14953 14.579 7.01876 14.68 6.91999C14.79 6.84992 14.9201 6.81827 15.05 6.82999H15.8C15.9331 6.81828 16.0664 6.84984 16.18 6.91999C16.2738 7.02383 16.3362 7.15212 16.36 7.28999L17.81 13.5L19.42 7.25999C19.4467 7.12103 19.5126 6.99262 19.61 6.88999C19.7163 6.81995 19.8433 6.7882 19.97 6.79999H20.84C20.871 6.79687 20.9023 6.80067 20.9316 6.81113C20.9609 6.82158 20.9876 6.83843 21.0096 6.86044C21.0316 6.88245 21.0484 6.90909 21.0589 6.93841C21.0693 6.96773 21.0732 6.99902 21.07 7.02999C21.0738 7.07992 21.0738 7.13006 21.07 7.17999C21.07 7.17999 21.07 7.30999 21.01 7.40999L18.75 14.61C18.7234 14.749 18.6574 14.8774 18.56 14.98C18.4526 15.0473 18.3265 15.0788 18.2 15.07H17.4C17.2685 15.084 17.1366 15.0483 17.03 14.97C16.9309 14.8698 16.8677 14.7398 16.85 14.6L15.4 8.59999L13.96 14.6C13.9424 14.7398 13.8791 14.8698 13.78 14.97C13.6727 15.0466 13.5414 15.0821 13.41 15.07L12.59 15.09ZM24.59 15.33C24.1055 15.3323 23.6223 15.2786 23.15 15.17C22.7783 15.0954 22.4184 14.9709 22.08 14.8C21.9604 14.743 21.8597 14.6527 21.79 14.54C21.7512 14.4552 21.7307 14.3632 21.73 14.27V13.8C21.73 13.61 21.8 13.51 21.94 13.51C21.9997 13.5005 22.0604 13.5005 22.12 13.51L22.35 13.61C22.67 13.753 23.006 13.86 23.35 13.93C23.715 14.01 24.087 14.05 24.46 14.05C24.9337 14.0795 25.4059 13.9718 25.82 13.74C25.9704 13.6485 26.094 13.519 26.1783 13.3645C26.2625 13.21 26.3045 13.0359 26.3 12.86C26.3048 12.7403 26.2851 12.621 26.2421 12.5092C26.1991 12.3974 26.1337 12.2956 26.05 12.21C25.7793 11.9754 25.4574 11.8076 25.11 11.72L23.76 11.29C23.176 11.1432 22.654 10.8139 22.27 10.35C21.9681 9.96068 21.8029 9.48268 21.8 8.98999C21.7946 8.64054 21.8808 8.29576 22.05 7.98999C22.217 7.68999 22.445 7.42699 22.72 7.21999C23.0206 6.99922 23.3598 6.83644 23.72 6.73999C24.1035 6.62952 24.501 6.57562 24.9 6.57999C25.1064 6.56541 25.3136 6.56541 25.52 6.57999L26.13 6.67999L26.66 6.82999L27.05 6.98999C27.155 7.05199 27.25 7.12999 27.33 7.21999C27.3858 7.31356 27.4135 7.42114 27.41 7.52999V7.96999C27.41 8.16999 27.34 8.26999 27.2 8.26999C27.073 8.25544 26.9504 8.21457 26.84 8.14999C26.2725 7.90332 25.6588 7.78059 25.04 7.78999C24.6113 7.7692 24.1843 7.85872 23.8 8.04999C23.6573 8.13686 23.541 8.26095 23.4635 8.40893C23.386 8.55692 23.3502 8.72322 23.36 8.88999C23.36 9.13899 23.46 9.37799 23.64 9.54999C23.935 9.78599 24.275 9.95999 24.64 10.06L25.96 10.48C26.5196 10.6284 27.0214 10.9421 27.4 11.38C27.6867 11.7558 27.8382 12.2174 27.83 12.69C27.836 13.0638 27.7538 13.4338 27.59 13.77C27.4294 14.092 27.1967 14.3726 26.91 14.59C26.6133 14.8285 26.274 15.0084 25.91 15.12C25.4735 15.2603 25.0185 15.3345 24.56 15.34L24.59 15.33Z" fill="white"/>
<path fill-rule="evenodd" clip-rule="evenodd" d="M26.32 19.93C22.973 22.2045 19.0166 23.414 14.97 23.4C9.85362 23.4277 4.91112 21.5448 1.10998 18.12C0.819981 17.86 1.10998 17.5 1.42998 17.7C5.64884 20.1172 10.4277 21.3861 15.29 21.38C18.9246 21.3652 22.5204 20.6311 25.87 19.22C26.39 19 26.83 19.56 26.32 19.93V19.93Z" fill="#F8991D"/>
<path fill-rule="evenodd" clip-rule="evenodd" d="M27.6 18.5C27.2 17.99 25 18.26 24.01 18.38C23.71 18.38 23.67 18.15 23.94 17.96C25.69 16.73 28.57 17.08 28.94 17.5C29.31 17.92 28.85 20.8 27.2 22.18C26.95 22.39 26.71 22.27 26.82 22C27.16 21.05 27.99 18.98 27.6 18.5V18.5Z" fill="#F8991D"/>
</svg>
